<svg xmlns="http://www.w3.org/2000/svg" width="117.403" height="35" viewBox="0 0 117.403 35"><defs><style>.a{fill:#b4272d;}.b{fill:#4d4d4d;fill-rule:evenodd;}</style></defs><g transform="translate(1629.527 -999.651)"><g transform="translate(-1629.527 999.651)"><g transform="translate(0)"><path class="a" d="M-1617.625,1033.742a17.485,17.485,0,0,1-3.4-1.568,17.611,17.611,0,0,1-3.435-2.7,17.283,17.283,0,0,1-3.251-4.541,17.142,17.142,0,0,1-1.515-4.53,18.026,18.026,0,0,1-.3-2.851,17.584,17.584,0,0,1,.388-4.1,17.2,17.2,0,0,1,1.426-4.073,17.485,17.485,0,0,1,1.288-2.18.129.129,0,0,1,.16-.058q1.5.341,3,.674a.549.549,0,0,0,.144,0,.628.628,0,0,0-.022-.144q-.59-1.423-1.189-2.845c-.033-.08,0-.115.047-.162a17.707,17.707,0,0,1,2.28-1.891,17.366,17.366,0,0,1,2.991-1.672,17.182,17.182,0,0,1,3.739-1.149,17.873,17.873,0,0,1,2.838-.3,17.393,17.393,0,0,1,4.643.51,17.247,17.247,0,0,1,6,2.789,17.446,17.446,0,0,1,5.278,6.089,17.284,17.284,0,0,1,1.749,5.2,17.657,17.657,0,0,1,.235,2.5,17.416,17.416,0,0,1-.512,4.645,17.237,17.237,0,0,1-2.843,6.078,17.432,17.432,0,0,1-5.792,5.071,17.338,17.338,0,0,1-5.442,1.878,17.408,17.408,0,0,1-2.473.233A17.7,17.7,0,0,1-1617.625,1033.742Zm12.541-12.495c-.031.029-.049.046-.064.062a3.633,3.633,0,0,1-2.441,1.195,3.056,3.056,0,0,1-2.262-.687,3.622,3.622,0,0,1-1.118-1.8,7.238,7.238,0,0,1-.16-3.441,4.225,4.225,0,0,1,1.116-2.26,3.066,3.066,0,0,1,3.315-.805,3.754,3.754,0,0,1,1.313.812c.08.069.124.075.2-.011q1.063-1.208,2.133-2.408c.069-.078.055-.117-.013-.18a7.817,7.817,0,0,0-1.355-1.038,6.5,6.5,0,0,0-3.082-.965,7.7,7.7,0,0,0-3.184.523,7.268,7.268,0,0,0-3.442,2.743,8.142,8.142,0,0,0-1.27,3.2,10.845,10.845,0,0,0-.078,3.238,8.472,8.472,0,0,0,.845,2.872,6.736,6.736,0,0,0,3.7,3.31,8.157,8.157,0,0,0,2.457.515,7.242,7.242,0,0,0,2.6-.28,6.634,6.634,0,0,0,3.014-1.947c.078-.087.053-.135-.011-.206q-.792-.871-1.581-1.747C-1604.665,1021.71-1604.871,1021.484-1605.084,1021.247Zm-15.939-7.588v.129q0,5.959,0,11.916c0,.106.024.144.138.144q1.967-.005,3.936,0c.117,0,.146-.035.146-.147q-.005-5.951,0-11.9v-.138Zm2.1-1.286c.1,0,.2.005.3,0a2.207,2.207,0,0,0,.308-.046,2.064,2.064,0,0,0,1.714-1.663,1.975,1.975,0,0,0-.723-1.973,2.336,2.336,0,0,0-1.3-.5,2.654,2.654,0,0,0-1.749.4,2.05,2.05,0,0,0-.26,3.169A2.388,2.388,0,0,0-1618.923,1012.373Z" transform="translate(1629.527 -999.651)"/></g></g><path class="b" d="M-1409.825,1018.634a2.006,2.006,0,0,1-1.379-.477,1.567,1.567,0,0,1-.539-1.237,1.573,1.573,0,0,1,.539-1.237,2.227,2.227,0,0,1,2.758,0,1.567,1.567,0,0,1,.539,1.237,1.573,1.573,0,0,1-.539,1.237A2.009,2.009,0,0,1-1409.825,1018.634Zm-1.719,1.237h3.437v9.945h-3.437Zm4.883-2.985h5.036a9.246,9.246,0,0,1,1.989.208,4.507,4.507,0,0,1,1.659.716,3.632,3.632,0,0,1,1.129,1.333,4.451,4.451,0,0,1,.419,2.04,4.5,4.5,0,0,1-.43,2.049,3.956,3.956,0,0,1-1.149,1.4,4.966,4.966,0,0,1-1.659.816,7.187,7.187,0,0,1-1.958.266h-1.6v4.1h-3.437Zm4.878,6.129a2.089,2.089,0,0,0,1.508-.477,1.807,1.807,0,0,0,.49-1.353,1.389,1.389,0,0,0-.519-1.237,2.585,2.585,0,0,0-1.479-.357h-1.439v3.422Zm6.042-7.047h3.435v3.22l-.16,1.712a7.1,7.1,0,0,1,1.25-.865,3.546,3.546,0,0,1,1.75-.4,2.654,2.654,0,0,1,2.379,1.1,5.247,5.247,0,0,1,.74,2.956v6.129h-3.437v-5.692a2.3,2.3,0,0,0-.24-1.273.892.892,0,0,0-.76-.319,1.5,1.5,0,0,0-.8.2,5.462,5.462,0,0,0-.719.557v6.526h-3.437Zm9.959,8.874a5.665,5.665,0,0,1,.41-2.209,4.9,4.9,0,0,1,1.1-1.641,4.686,4.686,0,0,1,1.59-1.015,5.122,5.122,0,0,1,1.862-.348,5.017,5.017,0,0,1,1.849.348,4.76,4.76,0,0,1,1.579,1.015,5,5,0,0,1,1.106,1.641,5.534,5.534,0,0,1,.419,2.209,5.537,5.537,0,0,1-.419,2.209,4.99,4.99,0,0,1-1.109,1.641,4.732,4.732,0,0,1-1.579,1.015,5.036,5.036,0,0,1-1.845.348,5.139,5.139,0,0,1-1.856-.348,4.715,4.715,0,0,1-1.59-1.015,4.852,4.852,0,0,1-1.1-1.641A5.674,5.674,0,0,1-1385.782,1024.841Zm3.517,0a4.106,4.106,0,0,0,.33,1.8,1.257,1.257,0,0,0,1.7.519,1.262,1.262,0,0,0,.519-.519,4.107,4.107,0,0,0,.33-1.8,4.107,4.107,0,0,0-.33-1.8,1.257,1.257,0,0,0-1.7-.519,1.262,1.262,0,0,0-.519.519,4.105,4.105,0,0,0-.33,1.8Zm7.042-4.974h2.794l.239,1.193h.08a6.566,6.566,0,0,1,1.37-1.005,3.613,3.613,0,0,1,1.792-.428,2.654,2.654,0,0,1,2.379,1.1,5.231,5.231,0,0,1,.74,2.956v6.129h-3.437v-5.692a2.316,2.316,0,0,0-.239-1.273.893.893,0,0,0-.76-.319,1.505,1.505,0,0,0-.8.2,5.459,5.459,0,0,0-.719.557v6.526h-3.437Zm9.959,4.974a5.508,5.508,0,0,1,.41-2.178,5.191,5.191,0,0,1,1.08-1.641,4.629,4.629,0,0,1,1.53-1.035,4.826,4.826,0,0,1,3.7.02,3.792,3.792,0,0,1,1.359,1.035,4.427,4.427,0,0,1,.809,1.532,6.315,6.315,0,0,1,.27,1.871,5.815,5.815,0,0,1-.051.816c-.033.239-.064.417-.089.537h-5.7a1.978,1.978,0,0,0,.86,1.313,2.855,2.855,0,0,0,1.459.357,3.435,3.435,0,0,0,1.009-.149,5.557,5.557,0,0,0,1.031-.444l1.12,2.033a6.067,6.067,0,0,1-1.809.865,6.631,6.631,0,0,1-1.829.29,5.81,5.81,0,0,1-2.04-.348,4.605,4.605,0,0,1-1.628-1.014,4.741,4.741,0,0,1-1.089-1.641,5.775,5.775,0,0,1-.4-2.217Zm6.237-1.115a1.914,1.914,0,0,0-.29-1.075,1.189,1.189,0,0,0-1.069-.443,1.578,1.578,0,0,0-1.009.339,1.9,1.9,0,0,0-.59,1.175Zm-50.8,10.067a2.006,2.006,0,0,1-1.379-.477,1.677,1.677,0,0,1-.095-2.371c.031-.033.062-.066.095-.095a2.227,2.227,0,0,1,2.758,0,1.677,1.677,0,0,1,.095,2.371c-.031.033-.062.066-.095.095a2.006,2.006,0,0,1-1.375.479Zm-1.719,1.237h3.437v9.947h-3.437Zm4.6,0h2.8l.239,1.193h.08a6.563,6.563,0,0,1,1.37-1.005,3.644,3.644,0,0,1,1.789-.428,2.654,2.654,0,0,1,2.379,1.1,5.246,5.246,0,0,1,.74,2.956v6.129h-3.437v-5.694a2.314,2.314,0,0,0-.239-1.273.892.892,0,0,0-.76-.319,1.5,1.5,0,0,0-.8.2,5.462,5.462,0,0,0-.719.557v6.526h-3.437Zm13.245,3.583a7.576,7.576,0,0,1,.519-2.9,6.3,6.3,0,0,1,1.4-2.129,6.078,6.078,0,0,1,2.033-1.326,6.42,6.42,0,0,1,2.408-.457,4.922,4.922,0,0,1,2.248.506,6.559,6.559,0,0,1,1.708,1.2l-1.878,2.109a4.443,4.443,0,0,0-.94-.647,2.459,2.459,0,0,0-1.1-.229,2.491,2.491,0,0,0-1.109.259,2.713,2.713,0,0,0-.92.736,3.64,3.64,0,0,0-.619,1.175,5,5,0,0,0-.229,1.572,4.457,4.457,0,0,0,.769,2.807,2.459,2.459,0,0,0,2.033.973,2.767,2.767,0,0,0,1.31-.29,3.56,3.56,0,0,0,.973-.745l1.88,2.069a5.514,5.514,0,0,1-1.92,1.433,5.545,5.545,0,0,1-2.279.477,7.111,7.111,0,0,1-2.419-.408,5.565,5.565,0,0,1-2-1.237,5.842,5.842,0,0,1-1.359-2.069,7.707,7.707,0,0,1-.508-2.889Zm10.519,3.541a2.806,2.806,0,0,1,1.279-2.437,9.211,9.211,0,0,1,4.156-1.184q-.12-1.035-1.4-1.035a3.513,3.513,0,0,0-1.138.208,9.789,9.789,0,0,0-1.379.626l-1.2-2.229a9.937,9.937,0,0,1,2.138-.973,7.535,7.535,0,0,1,2.259-.339,4.134,4.134,0,0,1,3.047,1.1,4.854,4.854,0,0,1,1.109,3.552v5.532h-2.8l-.239-.954h-.08a5.528,5.528,0,0,1-1.27.865,3.342,3.342,0,0,1-1.488.328,3.053,3.053,0,0,1-1.259-.25,2.866,2.866,0,0,1-.949-.667,2.822,2.822,0,0,1-.59-.973,3.438,3.438,0,0,1-.2-1.182Zm3.279-.277q0,.716.92.716a1.176,1.176,0,0,0,.69-.189,3.594,3.594,0,0,0,.55-.488v-1.357a3.8,3.8,0,0,0-1.7.537,1,1,0,0,0-.457.776Zm6.721-6.845h2.8l.239,1.193h.08a6.566,6.566,0,0,1,1.37-1.005,3.644,3.644,0,0,1,1.789-.428,2.654,2.654,0,0,1,2.379,1.1,5.246,5.246,0,0,1,.74,2.956v6.129h-3.437v-5.7a2.315,2.315,0,0,0-.239-1.273.892.892,0,0,0-.76-.319,1.5,1.5,0,0,0-.8.2,5.461,5.461,0,0,0-.719.557v6.526h-3.437Zm10.162,7.124a2.806,2.806,0,0,1,1.279-2.437,9.211,9.211,0,0,1,4.156-1.184q-.12-1.035-1.4-1.035a3.51,3.51,0,0,0-1.138.208,9.789,9.789,0,0,0-1.379.626l-1.2-2.229a9.937,9.937,0,0,1,2.138-.973,7.527,7.527,0,0,1,2.259-.339,4.134,4.134,0,0,1,3.047,1.1,4.854,4.854,0,0,1,1.109,3.552v5.532h-2.8l-.239-.954h-.08a5.529,5.529,0,0,1-1.27.865,3.343,3.343,0,0,1-1.488.328,3.054,3.054,0,0,1-1.259-.25,2.865,2.865,0,0,1-.949-.667,2.82,2.82,0,0,1-.59-.973,3.5,3.5,0,0,1-.2-1.184Zm3.277-.279q0,.716.92.716a1.176,1.176,0,0,0,.69-.189,3.594,3.594,0,0,0,.55-.488v-1.357a3.8,3.8,0,0,0-1.7.537,1,1,0,0,0-.459.776Zm6.282-1.871a6.446,6.446,0,0,1,.353-2.189,5.174,5.174,0,0,1,.92-1.641,4.035,4.035,0,0,1,1.31-1.025,3.384,3.384,0,0,1,1.5-.357,2.923,2.923,0,0,1,1.339.266,3.992,3.992,0,0,1,.98.727l-.12-1.433v-3.224h3.437v13.848h-2.8l-.239-.916h-.08a4.308,4.308,0,0,1-1.189.836,3.07,3.07,0,0,1-1.326.319,3.88,3.88,0,0,1-1.688-.357,3.546,3.546,0,0,1-1.279-1.035,4.926,4.926,0,0,1-.82-1.641,7.54,7.54,0,0,1-.3-2.18Zm3.517-.04a3.478,3.478,0,0,0,.39,1.911,1.253,1.253,0,0,0,1.089.557,1.546,1.546,0,0,0,.7-.149,1.6,1.6,0,0,0,.579-.566v-3.667a1.578,1.578,0,0,0-.659-.379,2.6,2.6,0,0,0-.7-.1,1.24,1.24,0,0,0-.973.537,3.027,3.027,0,0,0-.426,1.851Zm7.042,2.189a2.806,2.806,0,0,1,1.279-2.437,9.211,9.211,0,0,1,4.156-1.184q-.12-1.035-1.4-1.035a3.521,3.521,0,0,0-1.14.208,9.789,9.789,0,0,0-1.379.626l-1.2-2.229a9.936,9.936,0,0,1,2.138-.973,7.526,7.526,0,0,1,2.259-.339,4.134,4.134,0,0,1,3.047,1.1,4.854,4.854,0,0,1,1.109,3.552v5.532h-2.8l-.24-.954h-.08a5.534,5.534,0,0,1-1.27.865,3.344,3.344,0,0,1-1.488.328,3.055,3.055,0,0,1-1.259-.25,2.867,2.867,0,0,1-.949-.667,2.79,2.79,0,0,1-.59-.973,3.5,3.5,0,0,1-.2-1.184Zm3.279-.279q0,.716.92.716a1.167,1.167,0,0,0,.688-.189,3.51,3.51,0,0,0,.55-.488v-1.357a3.8,3.8,0,0,0-1.7.537,1,1,0,0,0-.457.776Z" transform="translate(-178.113 -12.721)"/></g></svg>