<svg xmlns="http://www.w3.org/2000/svg" width="100" height="93" viewBox="0 0 100 93"><defs><style>.a{fill:#4d4d4d;}</style></defs><g transform="translate(0 -17)"><path class="a" d="M97.07,37.234H74.8V19.918A2.924,2.924,0,0,0,71.875,17H2.93A2.924,2.924,0,0,0,0,19.918v75.49A14.637,14.637,0,0,0,14.648,110h70.7A14.637,14.637,0,0,0,100,95.408V40.153A2.924,2.924,0,0,0,97.07,37.234ZM14.648,104.163a8.782,8.782,0,0,1-8.789-8.755V22.837H68.945c0,77.137-.037,72.848.067,73.948a14.514,14.514,0,0,0,2.869,7.378Zm79.492-8.755a8.782,8.782,0,0,1-8.789,8.755H83.594A8.782,8.782,0,0,1,74.8,95.408V43.071H94.141Z"/><path class="a" d="M111.68,89H67.93a2.918,2.918,0,1,0,0,5.837h43.75a2.918,2.918,0,1,0,0-5.837Z" transform="translate(-52.305 -57.992)"/><path class="a" d="M111.68,153H67.93a2.918,2.918,0,1,0,0,5.837h43.75a2.918,2.918,0,1,0,0-5.837Z" transform="translate(-52.305 -109.54)"/><path class="a" d="M111.68,393H67.93a2.918,2.918,0,1,0,0,5.837h43.75a2.918,2.918,0,1,0,0-5.837Z" transform="translate(-52.305 -302.845)"/><path class="a" d="M201.8,217H179.93a2.924,2.924,0,0,0-2.93,2.918v21.791a2.924,2.924,0,0,0,2.93,2.918H201.8a2.924,2.924,0,0,0,2.93-2.918V219.918A2.924,2.924,0,0,0,201.8,217Zm-2.93,21.791H182.859V222.837h16.016Z" transform="translate(-142.43 -161.088)"/><path class="a" d="M67.93,246.837H77.3a2.918,2.918,0,1,0,0-5.837H67.93a2.918,2.918,0,1,0,0,5.837Z" transform="translate(-52.305 -180.418)"/><path class="a" d="M67.93,310.837H77.3a2.918,2.918,0,1,0,0-5.837H67.93a2.918,2.918,0,1,0,0,5.837Z" transform="translate(-52.305 -231.967)"/></g></svg>