<svg xmlns="http://www.w3.org/2000/svg" width="100" height="84" viewBox="0 0 100 84"><defs><style>.a{fill:#4d4d4d;}</style></defs><g transform="translate(0 -40.998)"><path class="a" d="M78.867,265a13.87,13.87,0,1,0,13.867,13.87A13.884,13.884,0,0,0,78.867,265Zm0,21.879a8.009,8.009,0,1,1,8.008-8.009A8.018,8.018,0,0,1,78.867,286.881Z" transform="translate(-52.305 -180.246)"/><path class="a" d="M291.18,281H259.93a2.93,2.93,0,0,0,0,5.86h31.25a2.93,2.93,0,0,0,0-5.86Z" transform="translate(-206.805 -193.12)"/><path class="a" d="M291.18,361H259.93a2.93,2.93,0,0,0,0,5.86h31.25a2.93,2.93,0,0,0,0-5.86Z" transform="translate(-206.805 -257.492)"/><path class="a" d="M88.281,53.5h-1.9l-40.2-12.373a2.93,2.93,0,0,0-1.723,5.6l22,6.771H11.719A11.733,11.733,0,0,0,0,65.222v48.055A11.733,11.733,0,0,0,11.719,125H88.281A11.733,11.733,0,0,0,100,113.277V65.222A11.733,11.733,0,0,0,88.281,53.5ZM5.859,65.222a5.867,5.867,0,0,1,5.859-5.86H88.281a5.867,5.867,0,0,1,5.859,5.86v7.032H29.492V68.933a2.93,2.93,0,1,0-5.859,0v3.321H5.859Zm82.422,53.916H11.719a5.867,5.867,0,0,1-5.859-5.86V78.115H94.141v35.162A5.867,5.867,0,0,1,88.281,119.137Z"/></g></svg>