<svg xmlns="http://www.w3.org/2000/svg" width="100" height="100" viewBox="0 0 100 100"><defs><style>.a{fill:#4d4d4d;}</style></defs><g transform="translate(-0.248 0.001)"><g transform="translate(0.248 -0.001)"><g transform="translate(0)"><path class="a" d="M95.949,25.765H55.107l19.776-21.9a2.148,2.148,0,1,0-3.1-2.877l-21.5,23.614L28.8.992A2.149,2.149,0,0,0,25.443,3.68a2.181,2.181,0,0,0,.171.188l19.776,21.9H4.547a4.3,4.3,0,0,0-4.3,4.293V95.706A4.3,4.3,0,0,0,4.547,100h91.4a4.3,4.3,0,0,0,4.3-4.293V29.994A4.3,4.3,0,0,0,95.949,25.765Zm0,69.876H4.784V29.994H96.035Z" transform="translate(-0.248 0.001)"/></g></g><g transform="translate(11.212 34.524)"><path class="a" d="M114.975,128.66H45.285a4.3,4.3,0,0,0-4.235,4.293v48.065a4.3,4.3,0,0,0,4.3,4.293h69.626a4.3,4.3,0,0,0,4.3-4.293V132.953A4.3,4.3,0,0,0,114.975,128.66Zm-.064,52.273H45.328V132.953h69.647Z" transform="translate(-41.05 -128.66)"/></g></g></svg>